<svg xmlns="http://www.w3.org/2000/svg" width="15.05" height="10.032" viewBox="0 0 15.05 10.032">
  <path id="_290102_control_panel_dashboard_gauge_measure_meter_icon" data-name="290102_control panel_dashboard_gauge_measure_meter_icon" d="M18.014,18.231s0,.007,0,.01,0,0,0,.006a.027.027,0,0,1,0,.006.358.358,0,0,1-.358.358L14.466,18.6a.358.358,0,0,1,0-.717h2.847c.007-.12.019-.237.019-.358a6.808,6.808,0,0,0-13.616,0c0,.121.013.239.019.358H6.583a.358.358,0,1,1,0,.717l-3.191.011a.358.358,0,0,1-.358-.358.027.027,0,0,1,0-.006s0,0,0-.006,0-.007,0-.01C3.014,18,3,17.763,3,17.525a7.525,7.525,0,1,1,15.05,0C18.05,17.763,18.036,18,18.014,18.231ZM8.2,13.987a.377.377,0,0,1,.426.048l-.018-.03c3.144,2.3,3.79,3.359,3.8,3.378a1.718,1.718,0,0,1-.68,2.412,1.913,1.913,0,0,1-2.539-.646c-.013-.019-.654-1.08-1.179-4.817l.018.029A.34.34,0,0,1,8.2,13.987Z" transform="translate(-3 -10)" fill-rule="evenodd"/>
</svg>
